{"title":"R. Kelly - Cookie [Explicit] 720p [Sbyky]","uid":11736502,"size":66349516,"categoryP":"video","categoryS":"music_videos","magnet":"?xt=urn:btih:6233ce21de36eeb9656a83c62559a193b8d5dd3b&amp;dn=R.+Kelly+-+Cookie+%5BExplicit%5D+720p+%5BSbyky%5D&amp;tr=udp%3A%2F%2Ftracker.openbittorrent.com%3A80&amp;tr=udp%3A%2F%2Fopen.demonii.com%3A1337&amp;tr=udp%3A%2F%2Ftracker.coppersurfer.tk%3A6969&amp;tr=udp%3A%2F%2Fexodus.desync.com%3A6969","seeders":2,"leechers":0,"uploader":"Sbyky","files":1,"time":1425586841,"description":"General\nComplete name                            : R. Kelly - Cookie [Explicit] 720p [Sbyky].mp4\nFormat                                   : MPEG-4\nFormat profile                           : Base Media\nCodec ID                                 : isom\nFile size                                : 63.3 MiB\nDuration                                 : 4mn 36s\nOverall bit rate mode                    : Variable\nOverall bit rate                         : 1 920 Kbps\nEncoded date                             : UTC 2014-03-07 16:57:12\nTagged date                              : UTC 2014-03-07 16:57:12\n\nVideo\nID                                       : 1\nFormat                                   : AVC\nFormat/Info                              : Advanced Video Codec\nFormat profile                           : &lt;a class=&quot;__cf_email__&quot; href=&quot;/cdn-cgi/l/email-protection&quot; data-cfemail=&quot;0c416d65624c403f223d&quot;&gt;[email&amp;#160;protected]&lt;/a&gt;&lt;script cf-hash='f9e31' type=&quot;text/javascript&quot;&gt;\n/* &lt;![CDATA[ */!function(){try{var t=&quot;currentScript&quot;in document?document.currentScript:function(){for(var t=document.getElementsByTagName(&quot;script&quot;),e=t.length;e--;)if(t[e].getAttribute(&quot;cf-hash&quot;))return t[e]}();if(t&amp;&amp;t.previousSibling){var e,r,n,i,c=t.previousSibling,a=c.getAttribute(&quot;data-cfemail&quot;);if(a){for(e=&quot;&quot;,r=parseInt(a.substr(0,2),16),n=2;a.length-n;n+=2)i=parseInt(a.substr(n,2),16)^r,e+=String.fromCharCode(i);e=document.createTextNode(e),c.parentNode.replaceChild(e,c)}}}catch(u){}}();/* ]]&gt; */&lt;/script&gt;\nFormat settings, CABAC                   : Yes\nFormat settings, ReFrames                : 3 frames\nCodec ID                                 : avc1\nCodec ID/Info                            : Advanced Video Coding\nDuration                                 : 4mn 36s\nDuration_LastFrame                       : -41ms\nBit rate                                 : 1 791 Kbps\nWidth                                    : 1 280 pixels\nHeight                                   : 720 pixels\nDisplay aspect ratio                     : 16:9\nFrame rate mode                          : Constant\nFrame rate                               : 23.976 fps\nColor space                              : YUV\nChroma subsampling                       : 4:2:0\nBit depth                                : 8 bits\nScan type                                : Progressive\nBits/(Pixel*Frame)                       : 0.081\nStream size                              : 59.0 MiB (93%)\nEncoded date                             : UTC 2014-03-07 16:57:12\nTagged date                              : UTC 2014-03-07 16:57:12\n\nAudio\nID                                       : 2\nFormat                                   : AAC\nFormat/Info                              : Advanced Audio Codec\nFormat profile                           : LC\nCodec ID                                 : 40\nDuration                                 : 4mn 36s\nBit rate mode                            : Variable\nBit rate                                 : 126 Kbps\nChannel(s)                               : 2 channels\nChannel positions                        : Front: L R\nSampling rate                            : 44.1 KHz\nCompression mode                         : Lossy\nStream size                              : 4.14 MiB (7%)\nEncoded date                             : UTC 2014-03-07 16:55:16\nTagged date                              : UTC 2014-03-07 16:55:16\n\nShared By Sbyky","torrent":{"xt":"urn:btih:6233ce21de36eeb9656a83c62559a193b8d5dd3b","amp;dn":"R.+Kelly+-+Cookie+%5BExplicit%5D+720p+%5BSbyky%5D","amp;tr":["udp%3A%2F%2Ftracker.openbittorrent.com%3A80","udp%3A%2F%2Fopen.demonii.com%3A1337","udp%3A%2F%2Ftracker.coppersurfer.tk%3A6969","udp%3A%2F%2Fexodus.desync.com%3A6969"],"infoHash":"6233ce21de36eeb9656a83c62559a193b8d5dd3b","infoHashBuffer":{"type":"Buffer","data":[98,51,206,33,222,54,238,185,101,106,131,198,37,89,161,147,184,213,221,59]},"announce":[],"urlList":[]}}